HIERARCHY
ROOT Hips
{
  OFFSET -17.8222 7.7 127.125
  CHANNELS 6 Xposition Yposition Zposition Zrotation Xrotation Yrotation
  JOINT Spine
  {
    OFFSET 0 0 0
    CHANNELS 3 Zrotation Xrotation Yrotation
    JOINT Spine1
    {
      OFFSET 19 0 0
      CHANNELS 3 Zrotation Xrotation Yrotation
      JOINT Neck
      {
        OFFSET 22.5 0.6 0
        CHANNELS 3 Zrotation Xrotation Yrotation
        JOINT Head
        {
          OFFSET 14 0.0308777 0
          CHANNELS 3 Zrotation Xrotation Yrotation
          End Site
          {
            OFFSET 17 0 0
          }
        }
      }
      JOINT LeftShoulder
      {
        OFFSET 19.8 3.7 4.3
        CHANNELS 3 Zrotation Xrotation Yrotation
        JOINT LeftArm
        {
          OFFSET 8 0 0
          CHANNELS 3 Zrotation Xrotation Yrotation
          JOINT LeftForeArm
          {
            OFFSET 15.2 0 0
            CHANNELS 3 Zrotation Xrotation Yrotation
            JOINT LeftHand
            {
              OFFSET 17.8 0 0
              CHANNELS 3 Zrotation Xrotation Yrotation
              End Site
              {
                OFFSET 7.2 0 0
              }
            }
          }
        }
      }
      JOINT RightShoulder
      {
        OFFSET 19.8 3.7 -4.3
        CHANNELS 3 Zrotation Xrotation Yrotation
        JOINT RightArm
        {
          OFFSET 8 0 0.151654
          CHANNELS 3 Zrotation Xrotation Yrotation
          JOINT RightForeArm
          {
            OFFSET 15.2 0 0
            CHANNELS 3 Zrotation Xrotation Yrotation
            JOINT RightHand
            {
              OFFSET 17.8 0 0
              CHANNELS 3 Zrotation Xrotation Yrotation
              End Site
              {
                OFFSET 7.2 0 0
              }
            }
          }
        }
      }
    }
  }
  JOINT LeftUpLeg
  {
    OFFSET 5.98425 -7.666 4.78879
    CHANNELS 3 Zrotation Xrotation Yrotation
    JOINT LeftLeg
    {
      OFFSET 16 0 0
      CHANNELS 3 Zrotation Xrotation Yrotation
      JOINT LeftFoot
      {
        OFFSET 18 0 0
        CHANNELS 3 Zrotation Xrotation Yrotation
        End Site
        {
          OFFSET 0 -10.8 0
        }
      }
    }
  }
  JOINT RightUpLeg
  {
    OFFSET 5.98425 -7.66598 -4.78879
    CHANNELS 3 Zrotation Xrotation Yrotation
    JOINT RightLeg
    {
      OFFSET 16 0 0
      CHANNELS 3 Zrotation Xrotation Yrotation
      JOINT RightFoot
      {
        OFFSET 18 0 0
        CHANNELS 3 Zrotation Xrotation Yrotation
        End Site
        {
          OFFSET 0 -10.8 0
        }
      }
    }
  }
  JOINT Tail
  {
    OFFSET 6.83696 -0.722574 0
    CHANNELS 3 Zrotation Xrotation Yrotation
    JOINT Tail1
    {
      OFFSET 12 0 0
      CHANNELS 3 Zrotation Xrotation Yrotation
      End Site
      {
        OFFSET 12 0 0
      }
    }
  }
}
MOTION
Frames:	19
Frame Time:	0.0166667
3.60605 46.8076 -248.509 -2.44058 6.08537 100.511 -175.321 -2.33463 -1.2306 -13.7097 -1.86955 -1.18152 8.02029 -4.81961 4.75832 -108.983 66.9372 122.166 -108.47 -30.6527 -145.646 133.586 -24.8304 -142.31 -60.1326 16.5337 5.04023 -24.575 6.12751 -22.2694 73.6973 -33.0602 46.1112 41.6297 13.6455 -53.5212 -72.0286 4.05443 -13.5082 0.914185 0.989991 -6.86195 -110.354 -3.94416 -12.6218 65.1538 23.4692 7.02109 55.0112 -4.55595 -7.16508 -101.04 -2.69639 -14.699 73.285 -6.40113 -0.561123 58.4363 0.936547 -1.40252 -26.251 21.9297 1.13322 1.09141 -24.7138 2.94591 
3.95661 47.6373 -243.176 -1.03142 8.99832 101.283 -179.704 -2.52924 0.262348 -6.67721 -1.91018 -2.93501 5.45059 -6.09181 6.98451 -108.406 67.2125 119.108 -107.988 -29.292 -147.638 128.554 -25.0323 -143.19 -62.9557 20.6063 6.0352 -30.09 8.43572 -25.9524 73.7103 -34.47 48.9823 36.3964 9.85567 -50.6083 -68.1951 -1.27003 -11.011 -2.67774 1.44016 -7.17267 -108.214 -3.92483 -10.0765 62.2871 19.9915 5.69256 61.794 -3.96325 -6.37774 -106.224 1.22686 -8.95812 81.4351 -2.90625 -2.33197 50.1192 0.300087 -1.53709 -24.3835 22.7235 -9.71418 0.806846 -18.8141 -1.08202 
4.36604 48.2754 -237.894 0.125412 11.2123 101.597 176.396 -2.42511 1.48058 0.522531 -1.766 -4.5471 0.902063 -7.08458 8.70235 -108.144 67.362 117.431 -107.075 -27.693 -149.067 127.202 -25.0281 -144.511 -62.9481 22.2664 6.67314 -33.133 9.77877 -27.6335 73.3421 -36.224 51.1596 30.4174 5.52378 -48.8367 -61.9225 -7.90693 -7.39102 -7.09382 1.84876 -6.6533 -108.192 -3.9199 -8.33467 64.6899 12.8875 4.16008 63.8236 -3.3923 -5.83218 -112.234 5.05351 -2.37493 89.9773 -1.61775 -3.89561 43.7533 -0.082538 -1.66779 -21.9467 21.5901 -19.5894 0.288274 -13.3549 -4.06489 
4.76375 48.8229 -232.759 0.720774 11.722 101.332 174.531 -1.94652 2.88462 6.4844 -1.2669 -6.73592 -5.4793 -7.62206 9.57733 -107.027 68.0694 117.345 -106.01 -26.33 -149.415 129.173 -28.4893 -146.906 -61.9336 21.5988 7.12686 -33.0486 10.4648 -29.159 72.5884 -38.0604 52.2012 28.1547 -1.50549 -48.8495 -57.2831 -14.4471 -3.38982 -14.8204 0.594348 0.894187 -108.985 -4.17832 -8.82394 70.2359 8.46756 3.36485 62.0358 -3.02021 -5.49161 -117.86 6.72599 1.44704 96.7765 -2.82423 -4.48112 36.4227 -0.361943 -1.60823 -18.856 18.9729 -28.6953 0.185446 -8.94636 -5.99926 
5.1005 49.3305 -227.804 0.826851 10.8896 100.323 174.744 -0.930297 3.43549 10.4741 -0.30916 -8.34111 -12.2679 -8.36017 9.51691 -102.577 70.3002 116.704 -105.326 -25.6076 -149.175 131.465 -31.975 -146.415 -58.1186 20.3377 5.87554 -31.5134 9.59848 -27.937 72.5962 -38.3201 52.6605 31.1072 -7.67427 -50.0445 -63.46 -16.6436 -3.97857 -19.7268 -0.478304 5.24257 -111.556 -4.19335 -10.9852 79.8738 8.66725 2.82947 56.1339 -2.88459 -5.43191 -122.987 6.61664 2.8127 101.311 -3.61968 -4.54882 32.753 -0.559145 -1.61105 -15.5396 15.3676 -36.7239 0.796273 -5.8092 -6.75908 
5.35635 49.6606 -222.933 0.663946 9.52856 98.5853 175.833 0.289605 2.49211 12.4169 0.849532 -8.46512 -17.272 -9.55881 8.71628 -96.4069 72.3324 114.042 -104.791 -25.0272 -149.017 135.109 -35.3513 -143.668 -50.4927 16.5764 3.29856 -27.7901 7.60161 -24.9281 73.0808 -36.5757 51.0166 37.3883 -14.0219 -51.1507 -71.5829 -15.3757 -4.87743 -18.6979 -1.01151 7.16211 -115.306 -3.65708 -13.3056 90.3435 9.7605 2.03027 48.0815 -2.71229 -5.31023 -127.778 5.44574 2.28535 103.172 -4.1656 -4.52822 30.1557 -0.800141 -1.74208 -12.4031 11.4902 -43.486 2.00225 -3.75884 -6.44464 
5.56862 49.9093 -218.086 0.854271 7.21484 96.6888 178.936 1.21764 1.05835 11.2891 1.91775 -8.07965 -19.589 -10.3021 7.72378 -92.3552 74.2534 110.186 -104.483 -24.7214 -148.823 137.835 -36.7094 -138.904 -41.3825 12.4875 -0.22078 -21.6665 4.11323 -17.3796 73.4579 -34.4332 48.1487 41.2351 -22.1708 -49.8901 -73.0266 -19.6569 -3.79232 -22.4933 -2.29811 11.4902 -118.533 -2.9954 -15.0461 100.273 11.251 1.03843 38.5696 -2.57232 -5.15134 -131.405 4.05262 1.54724 102.06 -5.86638 -4.72001 28.5291 -0.903708 -1.73829 -8.8416 8.08014 -49.4852 3.43719 -2.34977 -5.64392 
5.79655 50.208 -213.313 1.50979 3.60219 94.8719 -175.247 1.74037 -0.0760199 7.25664 2.83725 -7.93711 -20.5995 -10.695 6.95575 -86.812 76.842 104.631 -104.762 -25.2919 -148.055 136.467 -33.3876 -132.81 -33.447 5.35625 -3.95838 -12.3991 1.18828 -7.21207 74.2173 -32.2624 46.0783 41.6793 -31.3028 -47.4915 -69.8852 -23.8679 -2.09356 -25.2002 -3.19788 14.3268 -120.717 -2.36322 -16.0788 109.152 12.5245 -0.0830957 29.7071 -2.46596 -4.94874 -133.359 3.05689 1.58071 98.5426 -7.635 -5.04726 29.2945 -0.789284 -1.60888 -4.37467 5.33734 -55.2436 5.22151 -1.3543 -4.78318 
6.03637 50.4623 -208.658 2.01304 -0.734463 93.0671 -168.694 1.97749 -1.69978 2.75203 3.58735 -7.07476 -21.8766 -11.0142 5.38975 -80.0486 77.7523 100.564 -105.361 -26.3969 -146.867 135.645 -32.5333 -128.404 -34.3881 -12.9368 -4.37848 5.59675 2.47135 -4.4046 75.4763 -29.713 44.5546 40.9617 -40.7358 -45.89 -64.9782 -23.1012 0.0539514 -23.9232 -4.1174 17.5069 -122.476 -1.55957 -17.2688 116.55 13.8167 -0.928662 23.0621 -2.39101 -4.76965 -133.831 2.36397 1.12338 93.2519 -8.75433 -5.30804 32.6251 -0.48916 -1.4172 0.676008 2.78124 -60.5488 7.38204 -0.699352 -4.25002 
6.26674 50.5937 -204.13 2.45795 -5.40452 91.2986 -163.031 1.76306 -3.85447 -0.456153 3.84665 -5.2498 -23.6795 -10.1785 2.55602 -78.9239 77.0762 103.082 -106.156 -28.0608 -144.929 138.675 -37.428 -123.977 -44.6241 -35.981 -3.52588 29.8093 3.88011 -11.9271 76.9721 -27.2055 43.8025 39.01 -46.1738 -46.4766 -57.8387 -23.7212 1.30437 -23.362 -3.05682 15.3765 -124.673 -0.731487 -18.1223 122.061 15.4822 -1.47935 18.6174 -2.37406 -4.68173 -133.183 1.60609 0.114379 86.6023 -9.10149 -5.24297 37.5258 -0.0922278 -1.24042 5.87941 0.394102 -65.2712 9.93203 -0.568213 -4.93474 
6.47297 50.5482 -199.711 2.77431 -9.86019 89.5991 -158.898 1.0649 -5.90078 -2.20532 3.58736 -3.55191 -25.0648 -9.15865 0.647175 -77.4532 77.2714 104.828 -107.804 -31.1404 -142.415 143.015 -43.5826 -120.117 -55.4769 -58.3764 1.62316 46.7709 0.0735872 -27.1898 78.0788 -25.3946 43.2802 37.0292 -49.0851 -48.4205 -51.533 -23.1127 1.84159 -20.4575 -0.546252 9.0047 -127.729 -0.253372 -18.3799 124.855 16.77 -1.78295 16.4699 -2.36988 -4.58365 -131.523 0.36456 -1.69491 78.5804 -11.0965 -4.4324 42.8527 0.611855 -0.809585 10.7587 -1.96656 -69.0969 12.4202 -1.55487 -7.85072 
6.68621 50.3454 -195.43 2.88654 -13.8472 87.8591 -155.418 -0.00593053 -8.2028 -4.5208 3.06026 -1.68273 -25.1582 -8.77419 -0.0889696 -73.5549 78.045 104.123 -109.725 -34.6148 -140.281 141.494 -46.9957 -120.736 -57.5199 -72.644 17.1381 55.4979 -4.40542 -36.4727 78.4847 -24.6118 42.7121 38.1066 -50.7255 -48.672 -48.7505 -20.7894 1.54556 -13.8162 2.32384 -0.912832 -131.467 -0.0717636 -18.0939 124.979 17.5386 -1.79151 15.757 -2.40923 -4.64113 -128.878 -0.872562 -3.97738 70.1589 -14.8191 -3.20268 48.985 1.67027 -0.141396 14.9948 -4.07494 -71.4036 14.1423 -4.34067 -13.474 
6.96064 49.9423 -191.307 2.84459 -16.8662 85.9577 -152.46 -1.39525 -11.1894 -7.91364 2.23084 1.10301 -24.4539 -8.25616 -0.93626 -72.2692 78.0388 106.199 -111.025 -37.2556 -138.491 135.415 -45.5128 -123.004 -41.411 -76.7593 48.0509 51.6868 -4.19814 -38.453 78.0429 -25.0211 42.0071 45.8416 -54.3398 -43.4177 -55.8788 -15.9839 0.535666 -1.15406 3.50015 -14.2149 -135.47 0.0136139 -16.8746 122.264 18.1393 -1.44293 16.0398 -2.52993 -4.9385 -126.021 -1.27733 -5.85153 63.1754 -17.611 -1.86726 55.3188 2.56908 0.158598 18.4846 -5.46998 -71.7764 14.2899 -9.22161 -22.3097 
7.30401 49.1918 -187.247 2.95417 -19.1367 84.0868 -150.17 -3.06884 -14.2457 -11.8605 1.01669 3.97072 -23.2658 -7.61608 -1.39943 -72.4862 78.0545 109.305 -111.801 -38.8205 -137.542 130.447 -40.5821 -124.301 -26.2384 -76.5181 73.6001 41.9467 -2.33842 -41.7277 77.3456 -25.7264 41.1385 53.1244 -59.9799 -33.6307 -67.268 -12.0211 -2.24031 11.7546 2.13334 -29.7601 -138.667 -0.104547 -14.7564 116.695 19.2288 -0.776659 17.063 -2.74647 -5.41696 -122.823 -0.962837 -6.52916 60.4494 -17.4014 -1.17312 58.7239 2.99728 0.153067 21.2809 -5.71401 -68.7029 12.4194 -15.18 -33.9714 
7.64712 48.0656 -183.116 3.3459 -20.7214 82.4182 -148.728 -4.86146 -16.0968 -15.8623 -0.393581 5.06052 -21.2813 -6.98482 -0.57982 -72.9288 78.8854 111.175 -112.29 -39.7719 -137.042 127.788 -34.7949 -124.545 -44.972 -73.6315 61.8394 34.8089 -0.0632288 -37.4212 77.0883 -25.9885 40.8459 57.7398 -63.6409 -23.4551 -79.6352 -7.61126 -6.13722 22.481 -1.82567 -45.5867 -141.398 -1.02864 -13.1689 109.438 20.4715 0.406091 20.3597 -3.02245 -5.93963 -118.904 -0.921476 -6.47861 60.3856 -15.8868 -0.936943 59.7693 3.05143 0.0532072 23.5494 -5.0106 -62.6983 8.0794 -20.5163 -47.7182 
7.95909 46.5979 -178.947 3.90368 -20.924 81.361 -149.244 -6.3046 -16.6744 -19.1559 -1.75907 4.72015 -18.8616 -6.07107 1.16442 -73.7816 80.5677 112.736 -112.476 -40.3101 -136.55 126.426 -29.0463 -124.301 -69.3436 -66.5399 40.9136 30.3366 1.26589 -28.2789 76.8567 -26.4606 41.2674 64.6517 -63.5523 -17.4306 -92.7229 8.22928 -8.0846 39.4611 -10.5014 -44.0803 -144.741 -2.53986 -12.28 100.123 19.8379 2.37639 26.9792 -3.20309 -6.12877 -115.547 -1.1285 -5.43412 66.944 -13.8308 -1.7328 48.3428 2.40797 0.475686 24.0537 -3.35229 -56.5542 4.6558 -23.2375 -57.9177 
8.22313 45.0081 -174.684 4.22373 -19.3653 81.0397 -151.716 -7.13346 -16.8656 -22.0057 -3.00536 4.56454 -16.3845 -5.07499 3.13221 -74.4364 82.445 114.507 -112.299 -40.1286 -136.443 126.513 -23.6672 -124.217 -83.4524 -51.7364 25.742 24.6618 2.07193 -15.0608 76.394 -27.3365 41.8835 66.6979 -59.6818 -19.5261 -102.684 28.5667 -9.44595 55.9383 -12.7553 -26.8354 -147.537 -3.255 -11.7849 88.3152 18.9534 4.97842 36.8072 -3.50424 -6.3489 -113.469 -1.12203 -4.53664 76.5624 -11.3652 -2.77706 32.1721 1.25612 0.589376 21.9255 -1.12372 -51.2166 6.54959 -22.832 -57.5128 
8.46023 43.6648 -170.172 4.06602 -16.2982 81.6268 -155.184 -7.37886 -15.8409 -24.7915 -3.99839 3.9411 -13.9802 -3.97135 5.27569 -76.5911 84.3343 117.73 -111.952 -39.6766 -136.394 128.084 -18.6025 -124.278 -84.6584 -35.8189 18.5764 15.0294 1.79045 -8.7064 75.7574 -28.2193 41.8316 63.3297 -51.4865 -27.1635 -106.357 43.5921 -13.6744 60.4609 -7.67399 -10.458 -148.591 -2.90838 -11.3402 74.4057 19.9074 8.49186 48.394 -4.34475 -7.11535 -111.885 -0.204192 -4.07355 83.0915 -10.1035 -3.55842 22.9085 0.55053 0.359972 18.0385 1.02281 -45.77 11.912 -17.8841 -46.3544 
8.79673 42.8256 -165.621 3.09294 -12.2511 83.0162 -158.144 -6.85772 -13.253 -28.444 -4.33983 2.85753 -11.796 -2.85616 6.81681 -81.2799 85.9203 123.365 -111.37 -38.818 -136.483 130.19 -12.7991 -123.927 -78.3505 -26.2335 14.7087 9.04756 1.65046 -9.14233 75.2179 -28.8873 41.5902 60.9764 -40.8255 -34.4137 -106.44 49.8957 -17.8371 56.9698 -3.649 -1.7308 -147.345 -3.88392 -12.7437 61.9126 20.7052 14.1702 58.892 -5.71655 -8.10108 -110.279 2.23103 -2.63537 85.1582 -11.8952 -4.75482 21.586 0.911056 1.02412 12.9714 2.36239 -40.1399 13.1863 -9.60141 -31.9212 
